:SAMPLES-PER-SECOND 30
:FULLY-SPECIFIED
:DEGREES
445
root  -34.2043 39.764 -26.3773 -179.596 -82.4464 177.589
RightUpLeg  -7.97493 -7.44171 -6.61659
RightLeg  46.8885 -7.9983 -9.37073
RightFoot  -6.92273 -0.180265 3.43391
RightToes  0.00048216 0.542163 -0.142577
Spine  33.9046 -0.688383 0.347038
Spine1  11.7705 0.759979 -4.75474
HEad  -7.33906 19.8988 -15.3989
LeftShoulder1  10.5128 -16.2571 -46.4061
LeftArm  -7.61919 27.524 -17.2199
LeftForeArm  12.6649 -12.266 -5.1706
LeftHand  -0.25398 0.0180481 5.50724
RightShoulder  6.90651 11.9703 38.561
RightArm  6.71413 -16.0694 32.3746
RightForeArm  -15.758 23.2847 5.78603
RightHand  -1.00471 0.724114 -19.0733
LeftUpLeg  -17.6004 10.9828 -0.0923294
LeftLeg  7.11403 16.9968 -4.54664
LeftFoot  11.494 -2.39753 11.4797
LeftToes  1.06246e-005 4.65856e-005 -8.18501e-006
446
root  -33.6803 39.5604 -26.4467 -173.94 -82.0379 171.422
RightUpLeg  -4.53177 -6.16777 -7.59555
RightLeg  46.5484 -6.55094 -7.68084
RightFoot  -7.87896 -0.176593 4.02826
RightToes  0.00048216 0.542163 -0.142577
Spine  30.6849 -0.330514 -0.310901
Spine1  11.7979 0.856951 -4.4897
HEad  -4.17189 23.5806 -15.9251
LeftShoulder1  10.1195 -15.5973 -46.2104
LeftArm  -7.54143 30.3693 -17.6799
LeftForeArm  10.7124 -13.4409 -4.96829
LeftHand  -0.25398 0.0180481 5.50724
RightShoulder  6.79205 11.6772 38.665
RightArm  7.29027 -17.3809 32.6449
RightForeArm  -14.5034 24.1825 5.87174
RightHand  -0.888592 0.136794 -18.6294
LeftUpLeg  -18.2195 11.1133 -0.99052
LeftLeg  7.4441 17.1398 -4.07409
LeftFoot  12.4009 -2.59897 11.9557
LeftToes  1.06246e-005 4.65856e-005 -8.18501e-006
447
root  -33.0556 39.3202 -26.5022 -171.881 -81.306 168.262
RightUpLeg  -0.45717 -4.59391 -8.3089
RightLeg  44.5748 -5.03466 -5.61137
RightFoot  -9.37143 -0.159767 5.7768
RightToes  0.00048216 0.542163 -0.142577
Spine  28.5669 -0.0820869 -0.146295
Spine1  11.6774 1.24851 -4.73553
HEad  -1.04998 27.7869 -16.3745
LeftShoulder1  9.82003 -14.9917 -46.3144
LeftArm  -7.23365 32.2101 -18.138
LeftForeArm  9.33875 -14.1478 -4.92788
LeftHand  -0.25398 0.0180481 5.50724
RightShoulder  6.64414 11.3925 38.5338
RightArm  7.1786 -18.2296 32.8373
RightForeArm  -13.3247 25.1615 6.04847
RightHand  -0.867042 -0.0657128 -18.8388
LeftUpLeg  -18.5226 12.2321 -1.56879
LeftLeg  8.24421 16.7972 -3.49409
LeftFoot  13.1838 -2.715 12.0708
LeftToes  1.06246e-005 4.65856e-005 -8.18501e-006
448
root  -32.305 39.048 -26.5326 -170.686 -80.2316 165.882
RightUpLeg  3.35743 -2.68887 -8.99788
RightLeg  41.2807 -3.61234 -3.68631
RightFoot  -12.9417 0.0445673 8.79917
RightToes  0.00048216 0.542163 -0.142577
Spine  26.884 0.125446 0.545869
Spine1  11.687 1.84255 -5.39956
HEad  1.92121 32.3287 -16.6816
LeftShoulder1  9.57535 -14.5454 -46.2758
LeftArm  -7.48968 33.3325 -19.2447
LeftForeArm  8.86714 -14.5296 -4.8595
LeftHand  -0.25398 0.0180481 5.50724
RightShoulder  6.50015 11.1277 38.3654
RightArm  6.61447 -18.287 32.8949
RightForeArm  -12.2345 26.036 6.20106
RightHand  -0.872162 -0.0494463 -18.8945
LeftUpLeg  -18.7688 12.9946 -1.93046
LeftLeg  8.76171 17.0717 -3.01356
LeftFoot  13.971 -2.84835 12.2486
LeftToes  1.06246e-005 4.65856e-005 -8.18501e-006
449
root  -31.393 38.7498 -26.5341 -170.63 -78.8388 164.8
RightUpLeg  5.92795 -0.973161 -9.4678
RightLeg  37.7289 -2.5092 -2.34906
RightFoot  -18.2314 0.55341 11.3042
RightToes  0.00048216 0.542163 -0.142577
Spine  25.5878 0.253263 1.72486
Spine1  11.7327 2.52142 -6.35055
HEad  4.40091 37.267 -17.1893
LeftShoulder1  9.36979 -14.2203 -46.1088
LeftArm  -8.31808 33.9482 -21.0085
LeftForeArm  8.8258 -14.8999 -4.73245
LeftHand  -0.25398 0.0180481 5.50724
RightShoulder  6.40961 10.9457 38.3013
RightArm  5.66465 -17.2796 32.7823
RightForeArm  -10.8142 26.6162 6.27018
RightHand  -0.781543 -0.39555 -18.0591
LeftUpLeg  -19.0048 12.4377 -1.66697
LeftLeg  8.43168 18.8183 -2.86201
LeftFoot  15.3232 -3.11471 12.6853
LeftToes  1.06246e-005 4.65856e-005 -8.18501e-006
450
root  -30.3111 38.4642 -26.4967 -174.255 -77.4233 167.373
RightUpLeg  6.86996 -0.463647 -9.14038
RightLeg  35.436 -1.9183 -1.72401
RightFoot  -22.9745 0.962088 11.0353
RightToes  0.00048216 0.542163 -0.142577
Spine  25.1162 0.0795175 4.06871
Spine1  11.7566 3.1938 -7.52226
HEad  5.79867 42.1727 -18.4864
LeftShoulder1  9.26546 -13.9575 -46.287
LeftArm  -8.98098 33.8169 -22.8258
LeftForeArm  8.89779 -15.3634 -4.65729
LeftHand  -0.25398 0.0180481 5.50724
RightShoulder  6.33356 10.8667 38.0269
RightArm  3.70571 -15.3224 32.8383
RightForeArm  -9.22884 26.9904 6.2821
RightHand  -0.645472 -0.999662 -16.9257
LeftUpLeg  -18.8901 11.2613 -0.214235
LeftLeg  7.19989 21.4378 -3.17219
LeftFoot  17.2816 -3.29037 12.4408
LeftToes  1.06246e-005 4.65856e-005 -8.18501e-006
451
root  -29.0986 38.2714 -26.428 179.812 -76.4368 172.202
RightUpLeg  6.47149 -1.59877 -8.08811
RightLeg  34.9549 -1.88764 -1.67933
RightFoot  -25.5576 0.85502 8.22128
RightToes  0.00048216 0.542163 -0.142577
Spine  25.237 -0.517297 7.43064
Spine1  12.2313 3.73146 -8.70073
HEad  6.19561 46.2003 -20.3623
LeftShoulder1  9.31347 -13.7851 -47.0079
LeftArm  -8.94964 32.6663 -24.3152
LeftForeArm  9.6175 -16.0176 -4.64893
LeftHand  -0.25398 0.0180481 5.50724
RightShoulder  6.21712 10.836 37.3344
RightArm  0.437719 -12.7416 33.206
RightForeArm  -8.23198 27.3836 6.32696
RightHand  -0.615654 -1.12654 -16.5964
LeftUpLeg  -18.0493 9.51558 2.20318
LeftLeg  4.74692 24.2365 -4.29993
LeftFoot  18.1553 -2.88565 10.4976
LeftToes  1.06246e-005 4.65856e-005 -8.18501e-006
452
root  -27.8208 38.2218 -26.367 175.924 -76.2651 175.197
RightUpLeg  5.32682 -3.5884 -7.24922
RightLeg  35.3219 -2.07798 -1.84528
RightFoot  -26.2346 0.52815 5.38332
RightToes  0.00048216 0.542163 -0.142577
Spine  25.1967 -1.26616 10.255
Spine1  13.3528 3.9816 -9.50325
HEad  6.73257 48.899 -21.5266
LeftShoulder1  9.4291 -13.7025 -47.835
LeftArm  -8.22959 30.9379 -25.6259
LeftForeArm  11.5965 -17.221 -4.55999
LeftHand  -0.25398 0.0180481 5.50724
RightShoulder  6.06618 10.7532 36.5516
RightArm  -3.22716 -10.0328 33.5102
RightForeArm  -8.16208 27.8254 6.42993
RightHand  -0.722719 -0.548474 -17.2233
LeftUpLeg  -16.5426 6.94704 4.05502
LeftLeg  0.49438 25.8033 -6.20398
LeftFoot  15.8973 -1.82272 7.06268
LeftToes  1.06246e-005 4.65856e-005 -8.18501e-006
453
root  -26.5823 38.2793 -26.3316 175.463 -77.0041 175.131
RightUpLeg  3.90171 -5.59767 -7.14659
RightLeg  35.6186 -1.95144 -1.76644
RightFoot  -25.888 0.340209 4.0416
RightToes  0.00048216 0.542163 -0.142577
Spine  24.615 -1.79201 11.7182
Spine1  14.3328 3.85174 -9.64063
HEad  8.65793 50.5563 -20.7354
LeftShoulder1  9.45905 -13.6118 -48.246
LeftArm  -7.09309 29.537 -26.931
LeftForeArm  14.3519 -19.1638 -4.29937
LeftHand  -0.25398 0.0180481 5.50724
RightShoulder  5.90645 10.5473 36.052
RightArm  -6.08815 -7.95813 33.4177
RightForeArm  -8.5086 28.2529 6.55134
RightHand  -0.875057 0.205266 -18.131
LeftUpLeg  -15.0231 5.41178 3.9305
LeftLeg  -4.36128 23.7866 -7.43667
LeftFoot  10.9249 -0.663235 2.98976
LeftToes  1.06246e-005 4.65856e-005 -8.18501e-006
454
root  -25.4555 38.4017 -26.2989 176.776 -78.4337 173.644
RightUpLeg  2.4503 -7.67381 -7.41485
RightLeg  35.6011 -1.50999 -1.42767
RightFoot  -24.8457 0.24646 3.50258
RightToes  0.00048216 0.542163 -0.142577
Spine  23.6882 -2.07336 12.4427
Spine1  14.4748 3.44053 -9.29066
HEad  11.7352 51.2425 -18.4312
LeftShoulder1  9.36787 -13.4599 -48.2079
LeftArm  -6.02651 28.8212 -28.0359
LeftForeArm  16.6761 -21.3818 -4.04695
LeftHand  -0.25398 0.0180481 5.50724
RightShoulder  5.75214 10.2666 35.7947
RightArm  -7.82379 -7.21495 32.9924
RightForeArm  -8.72666 28.861 6.71243
RightHand  -0.982005 0.675156 -18.8002
LeftUpLeg  -14.4413 3.87078 3.07851
LeftLeg  -6.75879 21.9936 -7.5272
LeftFoot  5.98907 0.0306211 -0.377958
LeftToes  1.06246e-005 4.65856e-005 -8.18501e-006
455
root  -24.4066 38.6504 -26.2473 -179.896 -80.3241 170.379
RightUpLeg  1.25429 -10.0129 -7.88322
RightLeg  34.7923 -1.24495 -1.19172
RightFoot  -22.9411 0.134476 2.8465
RightToes  0.00048216 0.542163 -0.142577
Spine  22.868 -2.27744 12.8574
Spine1  14.2217 3.0889 -9.0573
HEad  14.4993 50.7464 -16.3288
LeftShoulder1  9.24913 -13.3091 -48.0215
LeftArm  -5.51201 28.3395 -28.6439
LeftForeArm  17.9575 -23.1595 -4.04452
LeftHand  -0.25398 0.0180481 5.50724
RightShoulder  5.6317 10.037 35.6177
RightArm  -8.69985 -7.84547 32.3628
RightForeArm  -8.88387 29.7968 6.95527
RightHand  -1.03325 0.879742 -19.1418
LeftUpLeg  -14.3239 3.01089 1.80012
LeftLeg  -6.52366 22.355 -7.63908
LeftFoot  3.85972 0.168156 -1.41352
LeftToes  1.06246e-005 4.65856e-005 -8.18501e-006
456
root  -23.4313 39.0116 -26.1523 -173.821 -81.9747 164.37
RightUpLeg  0.606115 -12.3325 -8.67511
RightLeg  32.9523 -0.962724 -0.928636
RightFoot  -20.4675 0.0348236 2.1766
RightToes  0.00048216 0.542163 -0.142577
Spine  22.2139 -2.31158 13.2998
Spine1  14.11 3.1575 -9.28411
HEad  16.1088 49.7512 -15.2433
LeftShoulder1  9.1652 -13.2023 -47.8879
LeftArm  -5.66216 27.6725 -28.7417
LeftForeArm  18.4548 -24.3213 -4.22728
LeftHand  -0.25398 0.0180481 5.50724
RightShoulder  5.57054 9.91444 35.5435
RightArm  -8.73626 -9.21268 31.568
RightForeArm  -9.21969 30.5811 7.17254
RightHand  -1.03483 0.86694 -19.207
LeftUpLeg  -13.946 2.87214 0.413617
LeftLeg  -4.04524 24.3258 -7.72182
LeftFoot  3.64788 0.0709554 -0.705723
LeftToes  1.06246e-005 4.65856e-005 -8.18501e-006
457
root  -22.55 39.4022 -26.0017 -167.056 -82.5707 157.537
RightUpLeg  0.490172 -14.1316 -9.72683
RightLeg  30.3243 -0.0803879 -0.30095
RightFoot  -17.8256 -0.0139632 1.89727
RightToes  0.00048216 0.542163 -0.142577
Spine  21.666 -1.97316 13.944
Spine1  14.041 3.80676 -9.97913
HEad  17.3446 48.7686 -14.4358
LeftShoulder1  9.06483 -13.0663 -47.7496
LeftArm  -6.39617 27.061 -28.5893
LeftForeArm  18.663 -25.2368 -4.41835
LeftHand  -0.25398 0.0180481 5.50724
RightShoulder  5.54512 9.85073 35.5511
RightArm  -7.66903 -10.6501 30.823
RightForeArm  -9.59366 30.4545 7.1595
RightHand  -0.972286 0.539684 -19.0191
LeftUpLeg  -13.3711 3.86737 -0.803126
LeftLeg  0.902135 24.9972 -6.3696
LeftFoot  2.78215 -0.00662032 -0.0819337
LeftToes  1.06246e-005 4.65856e-005 -8.18501e-006
